<svg width="430" height="385" viewBox="0 0 430 385" fill="none" xmlns="http://www.w3.org/2000/svg">
<path d="M227.395 346.089H142.027C121.288 346.089 103.123 332.185 97.708 312.164L97.0596 309.77C92.371 292.437 78.0082 279.427 60.2969 276.472L38.3584 272.811C16.2244 269.118 0.00334028 249.966 0.00292969 227.526L0.00097657 143.424C0.000512533 107.66 22.3043 79.7133 58.0371 78.2278C92.087 76.8122 140.786 75.5371 206.214 71.2483L227.395 346.089ZM166.035 315.124C162.287 315.124 159.248 318.163 159.248 321.911V327.63C159.248 331.379 162.287 334.417 166.035 334.417H170.755C174.503 334.417 177.542 331.378 177.542 327.63V321.911C177.542 318.163 174.503 315.125 170.755 315.124H166.035ZM132.689 313.662C128.941 313.662 125.902 316.701 125.902 320.449V326.168C125.902 329.917 128.941 332.955 132.689 332.955H137.408C141.157 332.955 144.195 329.917 144.195 326.168V320.449C144.195 316.701 141.157 313.662 137.408 313.662H132.689ZM33.0762 97.6858C29.3277 97.6858 26.2891 100.725 26.2891 104.474V110.193C26.2893 113.941 29.3279 116.98 33.0762 116.98H37.7949C41.5432 116.98 44.5818 113.941 44.582 110.193V104.474C44.582 100.725 41.5434 97.6858 37.7949 97.6858H33.0762ZM66.4219 95.5227C62.6734 95.5227 59.6348 98.5614 59.6348 102.31V108.029C59.6348 111.777 62.6734 114.816 66.4219 114.816H71.1406C74.8891 114.816 77.9277 111.777 77.9277 108.029V102.31C77.9277 98.5614 74.8891 95.5227 71.1406 95.5227H66.4219ZM99.7676 92.1995C96.0192 92.1995 92.9805 95.2382 92.9805 98.9866V104.705C92.9807 108.454 96.0193 111.492 99.7676 111.492H104.487C108.235 111.492 111.274 108.453 111.274 104.705V98.9866C111.274 95.2383 108.236 92.1997 104.487 92.1995H99.7676ZM133.113 90.5989C129.365 90.599 126.326 93.6378 126.326 97.386V103.105C126.326 106.853 129.365 109.892 133.113 109.892H137.833C141.581 109.892 144.62 106.853 144.62 103.105V97.386C144.62 93.6378 141.581 90.599 137.833 90.5989H133.113ZM166.463 89.1223C162.714 89.1223 159.676 92.162 159.676 95.9104V101.629C159.676 105.377 162.715 108.416 166.463 108.416H171.182C174.93 108.416 177.969 105.377 177.969 101.629V95.9104C177.969 92.162 174.93 89.1223 171.182 89.1223H166.463Z" fill="#928B75"/>
<rect x="192.668" y="59.5872" width="222.113" height="304.779" fill="#D9D9D9"/>
<ellipse cx="303.72" cy="34.5666" rx="112.076" ry="15.9933" fill="#3A3131"/>
<path d="M303.723 30.0945C351.383 30.0945 392.094 34.3418 408.301 40.3269C392.094 46.312 351.383 50.5603 303.723 50.5603C256.063 50.5603 215.352 46.3121 199.145 40.3269C215.352 34.3417 256.063 30.0945 303.723 30.0945Z" fill="#221B1B"/>
<rect x="256.211" y="10.1011" width="95.0201" height="56.8217" fill="#2C2222"/>
<ellipse cx="303.721" cy="10.2594" rx="47.5101" ry="10.2594" fill="#221B1B"/>
<path d="M415.8 66.0034C415.8 66.0187 415.8 66.0345 415.8 66.0498C415.797 74.8824 365.621 82.0433 303.726 82.0434C241.829 82.0434 191.654 74.8824 191.651 66.0498C191.651 66.0345 191.658 66.0188 191.658 66.0034L191.651 34.6261C191.724 37.472 197.005 40.1291 206.207 42.4406C206.323 42.47 206.44 42.5042 206.558 42.5334C211.825 43.8371 218.343 45.0145 225.879 46.0529C227.232 46.2396 228.617 46.4196 230.035 46.5964C230.999 46.7167 231.977 46.8454 232.971 46.961C235.349 47.2378 237.807 47.501 240.341 47.7497C241.238 47.8376 242.144 47.9174 243.059 48.0016C244.903 48.1715 246.783 48.3374 248.699 48.4921C249.739 48.5758 250.788 48.6582 251.848 48.7373C254.112 48.9066 256.422 49.0605 258.774 49.2079C259.37 49.2452 259.969 49.2847 260.57 49.3206C263.603 49.5016 266.702 49.668 269.863 49.8111C270.77 49.852 271.683 49.886 272.6 49.9237C274.957 50.021 277.347 50.1069 279.765 50.1822C280.809 50.2147 281.859 50.2401 282.913 50.2684C285.302 50.3325 287.718 50.392 290.158 50.4341C291.22 50.4524 292.288 50.4731 293.359 50.4871C296.762 50.5317 300.209 50.5533 303.692 50.5534L303.719 50.56C307.21 50.56 310.669 50.5318 314.079 50.4871C315.146 50.4732 316.208 50.4523 317.267 50.4341C319.709 50.392 322.127 50.3326 324.518 50.2684C325.573 50.2401 326.622 50.2147 327.666 50.1822C330.064 50.1076 332.433 50.02 334.771 49.9237C335.718 49.8849 336.659 49.8533 337.595 49.8111C340.721 49.6694 343.787 49.506 346.788 49.3272C347.669 49.2748 348.544 49.2103 349.413 49.1549C351.308 49.0337 353.176 48.906 355.014 48.7704C356.344 48.6726 357.659 48.5773 358.957 48.4722C360.585 48.3401 362.187 48.1978 363.763 48.0546C365.035 47.9392 366.29 47.8258 367.527 47.7033C369.89 47.469 372.188 47.2265 374.414 46.9676C375.478 46.844 376.524 46.7055 377.556 46.5766C378.901 46.408 380.219 46.237 381.506 46.0596C389.08 45.0173 395.628 43.8302 400.913 42.5202C401.004 42.4976 401.095 42.4765 401.185 42.4539C410.482 40.1233 415.793 37.44 415.793 34.5665C415.793 34.4575 415.775 34.3502 415.76 34.2417H415.8V66.0034Z" fill="#423C3C"/>
<path d="M191.651 34.4936V34.2417H191.678C191.666 34.3259 191.654 34.409 191.651 34.4936Z" fill="#423C3C"/>
<path d="M415.792 368.421H415.79C415.79 368.437 415.792 368.454 415.792 368.47C415.791 377.303 365.613 384.463 303.716 384.463C241.819 384.463 191.641 377.303 191.64 368.47C191.64 368.454 191.642 368.437 191.642 368.421H191.64V336.662H191.666C191.65 336.771 191.64 336.88 191.64 336.99C191.641 342.836 213.627 347.948 246.445 350.738C246.577 350.749 246.71 350.761 246.842 350.772C249.106 350.962 251.42 351.142 253.782 351.31C253.908 351.319 254.034 351.328 254.16 351.337C256.531 351.504 258.951 351.659 261.414 351.802C261.526 351.809 261.639 351.816 261.751 351.823C262.989 351.894 264.238 351.962 265.497 352.028C265.55 352.03 265.603 352.033 265.656 352.035C266.843 352.097 268.041 352.155 269.247 352.21C269.418 352.218 269.589 352.227 269.76 352.235C270.979 352.29 272.206 352.342 273.442 352.392C273.626 352.399 273.81 352.406 273.994 352.413C275.075 352.456 276.162 352.496 277.256 352.533C277.514 352.542 277.773 352.551 278.032 352.56C279.229 352.6 280.435 352.638 281.647 352.672C281.978 352.682 282.309 352.689 282.641 352.698C283.599 352.724 284.561 352.749 285.528 352.772C285.818 352.779 286.11 352.786 286.401 352.792C287.645 352.82 288.896 352.844 290.154 352.865C290.43 352.87 290.707 352.875 290.984 352.879C292.081 352.897 293.182 352.912 294.289 352.925C294.553 352.928 294.818 352.932 295.083 352.935C296.293 352.948 297.509 352.958 298.729 352.966C299.101 352.968 299.473 352.97 299.845 352.972C301.13 352.978 302.421 352.983 303.716 352.983C305.012 352.983 306.302 352.978 307.586 352.972C307.959 352.97 308.331 352.968 308.703 352.966C309.923 352.958 311.138 352.948 312.348 352.935C312.614 352.932 312.879 352.928 313.144 352.925C314.248 352.912 315.348 352.897 316.443 352.879C316.723 352.875 317.003 352.87 317.283 352.865C318.537 352.844 319.785 352.821 321.026 352.793C321.325 352.787 321.624 352.779 321.922 352.772C322.877 352.749 323.828 352.725 324.775 352.699C325.114 352.69 325.453 352.682 325.792 352.672C326.998 352.638 328.199 352.601 329.391 352.561C329.658 352.552 329.925 352.542 330.192 352.532C331.273 352.495 332.349 352.455 333.417 352.413C333.612 352.406 333.806 352.399 334 352.391C335.228 352.342 336.448 352.289 337.659 352.235C337.841 352.226 338.023 352.218 338.205 352.209C339.385 352.155 340.558 352.098 341.721 352.038C341.8 352.034 341.88 352.031 341.958 352.027C343.206 351.962 344.442 351.893 345.668 351.823C345.789 351.816 345.909 351.809 346.029 351.802C348.476 351.659 350.881 351.505 353.239 351.339C353.385 351.329 353.531 351.318 353.677 351.308C356.017 351.141 358.31 350.963 360.552 350.775C360.707 350.762 360.861 350.749 361.015 350.736C365.694 350.338 370.153 349.892 374.359 349.405C374.392 349.401 374.425 349.397 374.458 349.393C377.083 349.088 379.61 348.765 382.03 348.428C382.102 348.418 382.175 348.408 382.248 348.398C382.695 348.335 383.139 348.272 383.58 348.208C383.606 348.204 383.632 348.2 383.658 348.197C403.532 345.311 415.791 341.355 415.792 336.99C415.792 336.88 415.782 336.771 415.767 336.662H415.792V368.421Z" fill="#423C3C"/>
<path d="M392.878 302.785L336.651 302.785L336.651 278.406C336.651 274.123 337.228 270.526 338.381 267.616C339.534 264.688 341.163 262.482 343.268 260.999C345.372 259.499 347.853 258.748 350.708 258.748C352.776 258.748 354.661 259.206 356.363 260.121C358.066 261.018 359.493 262.281 360.646 263.91C361.781 265.539 362.568 267.442 363.007 269.62L363.556 269.62C363.648 267.204 364.261 265.008 365.396 263.031C366.512 261.054 368.059 259.48 370.036 258.309C371.994 257.138 374.3 256.552 376.954 256.552C380.029 256.552 382.766 257.357 385.163 258.968C387.561 260.56 389.446 262.83 390.819 265.777C392.192 268.723 392.878 272.238 392.878 276.319L392.878 302.785ZM380.688 287.521L380.688 280.382C380.688 277.82 380.212 275.898 379.26 274.617C378.29 273.336 376.863 272.695 374.978 272.695C373.66 272.695 372.543 272.997 371.628 273.601C370.713 274.205 370.017 275.065 369.542 276.182C369.066 277.28 368.828 278.607 368.828 280.163L368.828 287.521L380.688 287.521ZM359.383 287.521L359.383 281.261C359.383 279.925 359.173 278.744 358.752 277.719C358.331 276.694 357.727 275.898 356.94 275.331C356.135 274.745 355.155 274.452 354.002 274.452C352.264 274.452 350.937 275.074 350.021 276.319C349.088 277.564 348.621 279.138 348.621 281.041L348.621 287.521L359.383 287.521ZM393.756 232.804C393.756 236.83 393.043 240.299 391.615 243.209C390.187 246.119 388.275 248.352 385.877 249.908C383.479 251.464 380.835 252.241 377.943 252.241C375.838 252.241 373.98 251.839 372.369 251.033C370.74 250.228 369.249 249.103 367.894 247.657C366.54 246.211 365.204 244.518 363.886 242.577L355.979 229.839C355.174 228.557 354.341 227.688 353.481 227.23C352.602 226.773 351.824 226.544 351.147 226.544C350.25 226.544 349.454 226.874 348.759 227.532C348.063 228.191 347.724 229.216 347.743 230.607C347.743 231.468 347.907 232.209 348.237 232.831C348.548 233.453 348.987 233.938 349.555 234.286C350.122 234.616 350.799 234.78 351.586 234.78C352.666 234.78 353.774 234.469 354.908 233.847C356.025 233.225 357.233 232.374 358.532 231.294C359.832 230.214 361.287 228.997 362.898 227.642L392.878 200.407L392.878 215.562L368.718 238.404C367.528 239.521 366.073 240.756 364.353 242.111C362.614 243.465 360.655 244.637 358.477 245.625C356.299 246.595 353.929 247.08 351.367 247.08C348.511 247.08 345.903 246.394 343.542 245.021C341.181 243.648 339.296 241.726 337.887 239.255C336.477 236.785 335.773 233.902 335.773 230.607C335.773 227.459 336.422 224.75 337.722 222.481C339.021 220.193 340.751 218.436 342.911 217.21C345.07 215.965 347.45 215.343 350.049 215.343C352.666 215.343 355.11 215.992 357.379 217.292C359.649 218.573 361.635 220.413 363.337 222.81L371.573 234.451C372.196 235.348 372.909 236.126 373.715 236.785C374.52 237.425 375.563 237.745 376.844 237.745C377.906 237.745 378.812 237.498 379.562 237.004C380.313 236.51 380.889 235.815 381.292 234.918C381.695 234.003 381.896 232.932 381.896 231.705C381.896 229.839 381.448 227.972 380.551 226.105C379.636 224.22 378.364 222.499 376.735 220.943C375.087 219.388 373.147 218.143 370.914 217.21C368.663 216.258 366.21 215.782 363.556 215.782L363.556 203.812C366.814 203.812 369.953 204.15 372.973 204.828C375.993 205.505 378.757 206.594 381.265 208.095C383.772 209.595 385.886 211.572 387.607 214.025C387.991 214.794 388.357 215.544 388.705 216.276C389.053 217.008 389.419 217.759 389.803 218.527C391.249 220.779 392.274 223.131 392.878 225.583C393.464 228.036 393.756 230.443 393.756 232.804ZM392.878 186.055L336.651 202.638L336.651 185.616L371.244 177.929L371.244 177.49L336.651 168.375L336.651 154.977L371.354 145.862L371.354 145.423L336.651 137.736L336.651 120.714L392.878 137.296L392.878 151.902L361.47 161.456L361.47 161.896L392.878 171.45L392.878 186.055Z" fill="#221B1B"/>
</svg>
