<svg width="444" height="385" viewBox="0 0 444 385" fill="none" xmlns="http://www.w3.org/2000/svg">
<path d="M227.395 346.089H142.027C121.288 346.089 103.123 332.185 97.708 312.164L97.0596 309.77C92.371 292.437 78.0082 279.427 60.2969 276.472L38.3584 272.811C16.2244 269.118 0.00334028 249.966 0.00292969 227.526L0.000976569 143.424C0.000525221 107.66 22.3043 79.7133 58.0371 78.2278C92.087 76.8122 140.786 75.5371 206.214 71.2483L227.395 346.089ZM166.035 315.124C162.287 315.124 159.248 318.163 159.248 321.911V327.63C159.248 331.379 162.287 334.417 166.035 334.417H170.755C174.503 334.417 177.542 331.378 177.542 327.63V321.911C177.542 318.163 174.503 315.125 170.755 315.124H166.035ZM132.689 313.662C128.941 313.662 125.902 316.701 125.902 320.449V326.168C125.902 329.917 128.941 332.955 132.689 332.955H137.408C141.157 332.955 144.195 329.917 144.195 326.168V320.449C144.195 316.701 141.157 313.662 137.408 313.662H132.689ZM33.0762 97.6858C29.3277 97.6858 26.2891 100.725 26.2891 104.474V110.193C26.2893 113.941 29.3279 116.98 33.0762 116.98H37.7949C41.5432 116.98 44.5818 113.941 44.582 110.193V104.474C44.582 100.725 41.5434 97.6858 37.7949 97.6858H33.0762ZM66.4219 95.5227C62.6734 95.5227 59.6348 98.5614 59.6348 102.31V108.029C59.6348 111.777 62.6734 114.816 66.4219 114.816H71.1406C74.8891 114.816 77.9277 111.777 77.9277 108.029V102.31C77.9277 98.5614 74.8891 95.5227 71.1406 95.5227H66.4219ZM99.7676 92.1995C96.0192 92.1995 92.9805 95.2382 92.9805 98.9866V104.705C92.9806 108.454 96.0193 111.492 99.7676 111.492H104.487C108.235 111.492 111.274 108.453 111.274 104.705V98.9866C111.274 95.2383 108.236 92.1997 104.487 92.1995H99.7676ZM133.113 90.5989C129.365 90.599 126.326 93.6378 126.326 97.386V103.105C126.326 106.853 129.365 109.892 133.113 109.892H137.833C141.581 109.892 144.62 106.853 144.62 103.105V97.386C144.62 93.6378 141.581 90.599 137.833 90.5989H133.113ZM166.463 89.1223C162.714 89.1223 159.676 92.162 159.676 95.9104V101.629C159.676 105.377 162.715 108.416 166.463 108.416H171.182C174.93 108.416 177.969 105.377 177.969 101.629V95.9104C177.969 92.162 174.93 89.1223 171.182 89.1223H166.463Z" fill="#5A270C"/>
<rect x="192.668" y="59.5872" width="222.113" height="304.779" fill="#EFA40B"/>
<ellipse cx="303.72" cy="34.5666" rx="112.076" ry="15.9933" fill="#3A3131"/>
<path d="M303.724 30.0945C351.384 30.0945 392.095 34.3417 408.302 40.3269C392.095 46.3121 351.384 50.5603 303.724 50.5603C256.064 50.5603 215.353 46.312 199.146 40.3269C215.353 34.3418 256.064 30.0945 303.724 30.0945Z" fill="#221B1B"/>
<rect x="256.212" y="10.1011" width="95.0201" height="56.8217" fill="#2C2222"/>
<ellipse cx="303.722" cy="10.2594" rx="47.5101" ry="10.2594" fill="#221B1B"/>
<path d="M415.8 66.0034C415.8 66.0187 415.8 66.0345 415.8 66.0498C415.798 74.8824 365.621 82.0433 303.726 82.0434C241.83 82.0434 191.654 74.8824 191.652 66.0498C191.652 66.0345 191.658 66.0188 191.658 66.0034L191.652 34.6261C191.725 37.472 197.005 40.1291 206.207 42.4406C206.324 42.47 206.44 42.5042 206.558 42.5334C211.825 43.8371 218.343 45.0145 225.879 46.0529C227.232 46.2396 228.618 46.4196 230.035 46.5964C231 46.7167 231.978 46.8454 232.971 46.961C235.349 47.2378 237.808 47.501 240.341 47.7497C241.238 47.8376 242.144 47.9174 243.059 48.0016C244.903 48.1715 246.783 48.3374 248.699 48.4921C249.739 48.5758 250.788 48.6582 251.848 48.7373C254.112 48.9066 256.422 49.0605 258.774 49.2079C259.37 49.2452 259.969 49.2847 260.57 49.3206C263.603 49.5016 266.702 49.668 269.863 49.8111C270.77 49.852 271.683 49.886 272.6 49.9237C274.958 50.021 277.347 50.1069 279.765 50.1822C280.809 50.2147 281.859 50.2401 282.914 50.2684C285.303 50.3325 287.718 50.392 290.158 50.4341C291.221 50.4524 292.288 50.4731 293.359 50.4871C296.762 50.5317 300.209 50.5533 303.693 50.5534L303.719 50.56C307.21 50.56 310.67 50.5318 314.079 50.4871C315.146 50.4732 316.209 50.4523 317.267 50.4341C319.709 50.392 322.127 50.3326 324.518 50.2684C325.573 50.2401 326.622 50.2147 327.666 50.1822C330.064 50.1076 332.434 50.02 334.772 49.9237C335.718 49.8849 336.659 49.8533 337.595 49.8111C340.721 49.6694 343.788 49.506 346.788 49.3272C347.669 49.2748 348.544 49.2103 349.413 49.1549C351.308 49.0337 353.176 48.906 355.014 48.7704C356.344 48.6726 357.659 48.5773 358.958 48.4722C360.585 48.3401 362.187 48.1978 363.763 48.0546C365.035 47.9392 366.291 47.8258 367.528 47.7033C369.891 47.469 372.188 47.2265 374.414 46.9676C375.478 46.844 376.525 46.7055 377.556 46.5766C378.902 46.408 380.219 46.237 381.506 46.0596C389.08 45.0173 395.628 43.8302 400.913 42.5202C401.004 42.4976 401.095 42.4765 401.185 42.4539C410.482 40.1233 415.793 37.44 415.793 34.5665C415.793 34.4575 415.775 34.3502 415.76 34.2417H415.8V66.0034Z" fill="#423C3C"/>
<path d="M191.652 34.4936V34.2417H191.678C191.666 34.3259 191.654 34.409 191.652 34.4936Z" fill="#423C3C"/>
<path d="M415.792 368.421H415.79C415.79 368.437 415.792 368.454 415.792 368.47C415.791 377.303 365.613 384.463 303.716 384.463C241.819 384.463 191.641 377.303 191.64 368.47C191.64 368.454 191.642 368.437 191.642 368.421H191.64V336.662H191.666C191.65 336.771 191.64 336.88 191.64 336.99C191.641 341.461 204.501 345.502 225.232 348.405C225.272 348.41 225.313 348.416 225.353 348.421C227.794 348.762 230.344 349.088 232.995 349.396C233.009 349.397 233.023 349.399 233.038 349.401C237.26 349.891 241.737 350.338 246.437 350.738C246.576 350.749 246.715 350.761 246.854 350.773C249.117 350.963 251.431 351.143 253.792 351.311C253.911 351.319 254.031 351.328 254.15 351.336C256.525 351.504 258.947 351.658 261.414 351.802C261.526 351.809 261.639 351.816 261.752 351.823C262.986 351.894 264.23 351.962 265.485 352.027C265.551 352.03 265.616 352.033 265.682 352.036C266.861 352.097 268.049 352.155 269.246 352.21C269.417 352.218 269.589 352.227 269.76 352.235C270.979 352.29 272.206 352.342 273.442 352.392C273.626 352.399 273.81 352.406 273.994 352.413C275.075 352.456 276.162 352.496 277.256 352.533C277.514 352.542 277.773 352.551 278.032 352.56C279.229 352.6 280.435 352.638 281.647 352.672C281.978 352.682 282.309 352.689 282.641 352.698C283.599 352.724 284.561 352.749 285.528 352.772C285.818 352.779 286.11 352.786 286.401 352.792C287.644 352.82 288.894 352.844 290.15 352.865C290.428 352.87 290.706 352.875 290.985 352.879C292.084 352.897 293.187 352.912 294.295 352.925C294.557 352.928 294.819 352.932 295.081 352.935C296.292 352.948 297.508 352.958 298.73 352.966C299.101 352.968 299.472 352.97 299.843 352.972C301.129 352.978 302.419 352.983 303.715 352.983C305.011 352.983 306.302 352.978 307.586 352.972C307.959 352.97 308.332 352.968 308.704 352.966C309.924 352.958 311.139 352.948 312.348 352.935C312.614 352.932 312.879 352.928 313.144 352.925C314.247 352.912 315.346 352.897 316.44 352.879C316.722 352.875 317.005 352.87 317.287 352.865C318.539 352.844 319.786 352.821 321.026 352.793C321.325 352.787 321.624 352.779 321.922 352.772C322.877 352.749 323.828 352.725 324.775 352.699C325.114 352.69 325.453 352.682 325.792 352.672C326.998 352.638 328.199 352.601 329.391 352.561C329.658 352.552 329.925 352.542 330.192 352.532C331.273 352.495 332.349 352.455 333.417 352.413C333.612 352.406 333.806 352.399 334 352.391C335.228 352.342 336.448 352.289 337.659 352.235C337.841 352.226 338.023 352.218 338.205 352.209C339.385 352.155 340.558 352.098 341.721 352.038C341.8 352.034 341.88 352.031 341.958 352.027C343.204 351.962 344.439 351.894 345.663 351.823C345.788 351.816 345.914 351.808 346.04 351.801C348.49 351.658 350.898 351.503 353.258 351.337C353.391 351.328 353.525 351.319 353.658 351.31C356.004 351.143 358.303 350.964 360.552 350.775C360.707 350.762 360.861 350.749 361.015 350.736C365.694 350.338 370.153 349.892 374.359 349.405C374.392 349.401 374.425 349.397 374.458 349.393C377.083 349.088 379.61 348.765 382.03 348.428C382.101 348.418 382.173 348.409 382.244 348.399C402.948 345.497 415.791 341.458 415.792 336.99C415.792 336.88 415.782 336.771 415.767 336.662H415.792V368.421Z" fill="#423C3C"/>
<path d="M358.81 257.92L358.81 276.311C357.289 276.441 355.908 276.789 354.669 277.354C353.43 277.898 352.365 278.659 351.474 279.637C350.56 280.593 349.865 281.756 349.387 283.126C348.887 284.495 348.637 286.05 348.637 287.789C348.637 290.832 349.376 293.408 350.854 295.517C352.332 297.604 354.452 299.191 357.213 300.278C359.973 301.343 363.288 301.876 367.158 301.876C371.245 301.876 374.669 301.332 377.43 300.245C380.169 299.136 382.234 297.539 383.625 295.452C384.995 293.365 385.679 290.854 385.679 287.919C385.679 286.245 385.473 284.745 385.06 283.419C384.625 282.093 384.005 280.941 383.201 279.963C382.397 278.985 381.429 278.191 380.299 277.583C379.147 276.952 377.853 276.528 376.419 276.311L376.549 257.92C379.375 258.137 382.255 258.931 385.19 260.3C388.103 261.67 390.799 263.616 393.277 266.137C395.733 268.637 397.712 271.735 399.212 275.43C400.712 279.126 401.462 283.419 401.462 288.311C401.462 294.441 400.146 299.941 397.516 304.81C394.886 309.658 391.016 313.495 385.908 316.321C380.799 319.125 374.549 320.527 367.158 320.527C359.723 320.527 353.463 319.093 348.376 316.223C343.267 313.354 339.409 309.484 336.8 304.615C334.17 299.745 332.854 294.311 332.854 288.311C332.854 284.093 333.43 280.213 334.583 276.67C335.735 273.126 337.419 270.018 339.637 267.344C341.832 264.67 344.539 262.518 347.756 260.887C350.974 259.257 354.658 258.268 358.81 257.92ZM360.376 216.565L373.94 216.565L373.94 247.869L360.376 247.869L360.376 216.565ZM390.114 206.636L376.027 206.636L333.767 179.767L333.767 166.984L352.55 166.984L352.55 174.289L375.506 188.767L376.027 188.767L376.027 149.115L390.114 149.115L390.114 206.636ZM400.549 174.158L385.81 174.158L379.679 173.767L333.767 173.767L333.767 156.811L400.549 156.811L400.549 174.158ZM333.767 109.668L400.549 109.668L400.549 127.798L350.463 127.798L350.463 128.189L359.202 142.797L343.811 142.797L333.767 126.363L333.767 109.668Z" fill="white"/>
</svg>
