<svg width="432" height="385" viewBox="0 0 432 385" fill="none" xmlns="http://www.w3.org/2000/svg">
<path d="M227.395 346.089H142.027C121.288 346.089 103.123 332.185 97.708 312.164L97.0605 309.77C92.372 292.436 78.0083 279.427 60.2969 276.472L38.3584 272.811C16.2244 269.117 0.00334028 249.966 0.00292969 227.526L0.000976569 143.424C0.000525222 107.661 22.3044 79.7134 58.0371 78.2278C92.087 76.8122 140.786 75.5371 206.214 71.2483L227.395 346.089ZM166.035 315.124C162.287 315.124 159.248 318.163 159.248 321.911V327.63C159.248 331.378 162.287 334.417 166.035 334.417H170.755C174.503 334.417 177.542 331.378 177.542 327.63V321.911C177.542 318.163 174.503 315.124 170.755 315.124H166.035ZM132.689 313.662C128.941 313.662 125.902 316.701 125.902 320.449V326.168C125.902 329.917 128.941 332.955 132.689 332.955H137.408C141.157 332.955 144.196 329.917 144.196 326.168V320.449C144.196 316.701 141.157 313.662 137.408 313.662H132.689ZM33.0762 97.6858C29.3277 97.6858 26.2891 100.725 26.2891 104.474V110.193C26.2893 113.941 29.3279 116.98 33.0762 116.98H37.7949C41.5432 116.98 44.5818 113.941 44.582 110.193V104.474C44.582 100.725 41.5434 97.6858 37.7949 97.6858H33.0762ZM66.4219 95.5227C62.6735 95.5228 59.6348 98.5614 59.6348 102.31V108.029C59.6348 111.777 62.6735 114.816 66.4219 114.816H71.1416C74.8898 114.815 77.9287 111.777 77.9287 108.029V102.31C77.9287 98.5615 74.8898 95.5229 71.1416 95.5227H66.4219ZM99.7676 92.1995C96.0193 92.1996 92.9805 95.2382 92.9805 98.9866V104.705C92.9806 108.454 96.0194 111.492 99.7676 111.492H104.487C108.236 111.492 111.274 108.454 111.274 104.705V98.9866C111.274 95.2382 108.236 92.1996 104.487 92.1995H99.7676ZM133.113 90.5989C129.365 90.5991 126.326 93.6379 126.326 97.386V103.105C126.326 106.853 129.365 109.892 133.113 109.892H137.833C141.581 109.892 144.62 106.853 144.62 103.105V97.386C144.62 93.6378 141.581 90.5989 137.833 90.5989H133.113ZM166.463 89.1223C162.714 89.1223 159.676 92.162 159.676 95.9104V101.629C159.676 105.377 162.715 108.416 166.463 108.416H171.182C174.93 108.416 177.969 105.377 177.969 101.629V95.9104C177.969 92.162 174.93 89.1223 171.182 89.1223H166.463Z" fill="#2C2727"/>
<rect x="192.668" y="59.5872" width="222.113" height="304.779" fill="#D31B0E"/>
<ellipse cx="303.72" cy="34.5666" rx="112.076" ry="15.9933" fill="#3A3131"/>
<path d="M303.723 30.0945C351.383 30.0945 392.094 34.3419 408.301 40.3269C392.094 46.312 351.383 50.5603 303.723 50.5603C256.063 50.5603 215.352 46.3121 199.145 40.3269C215.352 34.3417 256.063 30.0945 303.723 30.0945Z" fill="#221B1B"/>
<rect x="256.211" y="10.1011" width="95.0201" height="56.8217" fill="#2C2222"/>
<ellipse cx="303.725" cy="10.2594" rx="47.5101" ry="10.2594" fill="#221B1B"/>
<path d="M415.8 66.0034C415.8 66.0187 415.8 66.0345 415.8 66.0498C415.797 74.8824 365.621 82.0433 303.726 82.0434C241.829 82.0434 191.654 74.8824 191.651 66.0498C191.651 66.0345 191.658 66.0188 191.658 66.0034L191.651 34.6261C191.724 37.472 197.005 40.1291 206.207 42.4406C206.323 42.47 206.44 42.5042 206.558 42.5334C211.825 43.8371 218.343 45.0145 225.879 46.0529C227.232 46.2396 228.617 46.4196 230.035 46.5964C230.999 46.7167 231.977 46.8454 232.971 46.961C235.349 47.2378 237.807 47.501 240.341 47.7497C241.238 47.8376 242.144 47.9174 243.059 48.0016C244.903 48.1715 246.783 48.3374 248.699 48.4921C249.739 48.5758 250.788 48.6582 251.848 48.7373C254.112 48.9066 256.422 49.0605 258.774 49.2079C259.37 49.2452 259.969 49.2847 260.57 49.3206C263.603 49.5016 266.702 49.668 269.863 49.8111C270.77 49.852 271.683 49.886 272.6 49.9237C274.957 50.021 277.347 50.1069 279.765 50.1822C280.809 50.2147 281.859 50.2401 282.913 50.2684C285.302 50.3325 287.718 50.392 290.158 50.4341C291.22 50.4524 292.288 50.4731 293.359 50.4871C296.762 50.5317 300.209 50.5533 303.692 50.5534L303.719 50.56C307.21 50.56 310.669 50.5318 314.079 50.4871C315.146 50.4732 316.208 50.4523 317.267 50.4341C319.709 50.392 322.127 50.3326 324.518 50.2684C325.573 50.2401 326.622 50.2147 327.666 50.1822C330.064 50.1076 332.433 50.02 334.771 49.9237C335.718 49.8849 336.659 49.8533 337.595 49.8111C340.721 49.6694 343.787 49.506 346.788 49.3272C347.669 49.2748 348.544 49.2103 349.413 49.1549C351.308 49.0337 353.176 48.906 355.014 48.7704C356.344 48.6726 357.659 48.5773 358.957 48.4722C360.585 48.3401 362.187 48.1978 363.763 48.0546C365.035 47.9392 366.29 47.8258 367.527 47.7033C369.89 47.469 372.188 47.2265 374.414 46.9676C375.478 46.844 376.524 46.7055 377.556 46.5766C378.901 46.408 380.219 46.237 381.506 46.0596C389.08 45.0173 395.628 43.8302 400.913 42.5202C401.004 42.4976 401.095 42.4765 401.185 42.4539C410.482 40.1233 415.793 37.44 415.793 34.5665C415.793 34.4575 415.775 34.3502 415.76 34.2417H415.8V66.0034Z" fill="#423C3C"/>
<path d="M191.651 34.4936V34.2417H191.678C191.666 34.3259 191.654 34.409 191.651 34.4936Z" fill="#423C3C"/>
<path d="M415.792 368.421H415.79C415.79 368.437 415.792 368.454 415.792 368.47C415.791 377.303 365.614 384.463 303.716 384.463C241.819 384.463 191.641 377.303 191.64 368.47C191.64 368.454 191.642 368.437 191.642 368.421H191.64V336.662H191.666C191.65 336.771 191.64 336.88 191.64 336.99C191.641 341.461 204.501 345.502 225.23 348.405C225.271 348.41 225.312 348.415 225.353 348.421C227.794 348.762 230.344 349.088 232.995 349.396C233.009 349.397 233.023 349.399 233.038 349.401C237.26 349.891 241.738 350.338 246.437 350.738C246.576 350.749 246.715 350.761 246.854 350.773C249.111 350.963 251.419 351.142 253.774 351.31C253.906 351.319 254.038 351.328 254.17 351.337C256.542 351.504 258.961 351.66 261.424 351.803C261.532 351.809 261.639 351.815 261.747 351.822C262.982 351.893 264.228 351.962 265.485 352.027C265.55 352.03 265.616 352.033 265.682 352.036C266.861 352.097 268.049 352.155 269.246 352.21C269.417 352.218 269.589 352.227 269.76 352.235C270.978 352.29 272.206 352.342 273.442 352.392C273.626 352.399 273.81 352.406 273.994 352.413C275.075 352.456 276.163 352.496 277.256 352.533C277.514 352.542 277.773 352.551 278.032 352.56C279.229 352.6 280.435 352.638 281.647 352.672C281.978 352.682 282.309 352.689 282.641 352.698C283.599 352.724 284.561 352.749 285.528 352.772C285.818 352.778 286.11 352.786 286.401 352.792C287.645 352.82 288.896 352.844 290.154 352.865C290.429 352.87 290.706 352.875 290.982 352.879C292.082 352.897 293.186 352.912 294.295 352.925C294.557 352.928 294.819 352.932 295.081 352.935C296.292 352.948 297.508 352.958 298.73 352.966C299.101 352.968 299.472 352.97 299.843 352.972C301.128 352.978 302.419 352.983 303.715 352.983C305.01 352.983 306.3 352.978 307.584 352.972C307.958 352.97 308.331 352.968 308.704 352.966C309.923 352.958 311.137 352.948 312.345 352.935C312.614 352.932 312.883 352.928 313.151 352.925C314.252 352.912 315.349 352.897 316.441 352.879C316.722 352.875 317.003 352.87 317.283 352.865C318.537 352.844 319.785 352.821 321.026 352.793C321.325 352.787 321.624 352.779 321.922 352.772C322.877 352.749 323.828 352.725 324.775 352.699C325.114 352.69 325.453 352.682 325.792 352.672C326.998 352.638 328.199 352.601 329.391 352.561C329.658 352.552 329.925 352.542 330.192 352.532C331.273 352.495 332.349 352.455 333.417 352.413C333.612 352.406 333.806 352.399 334 352.391C335.228 352.342 336.448 352.289 337.659 352.235C337.84 352.226 338.022 352.219 338.203 352.21C339.393 352.155 340.575 352.098 341.748 352.037C341.814 352.034 341.881 352.03 341.947 352.027C343.196 351.962 344.435 351.894 345.664 351.823C345.789 351.816 345.914 351.808 346.04 351.801C348.49 351.658 350.898 351.503 353.258 351.337C353.391 351.328 353.525 351.319 353.658 351.31C356.008 351.143 358.311 350.963 360.563 350.774C360.712 350.761 360.86 350.748 361.008 350.736C365.702 350.336 370.175 349.89 374.393 349.401C374.407 349.399 374.422 349.397 374.436 349.396C377.086 349.088 379.636 348.762 382.078 348.421C382.119 348.415 382.16 348.41 382.201 348.405C402.931 345.502 415.791 341.461 415.792 336.99C415.792 336.88 415.782 336.771 415.767 336.662H415.792V368.421Z" fill="#423C3C"/>
<path d="M394.302 334.543L338.075 334.543L338.075 294.02L350.375 294.02L350.375 319.278L360.039 319.278L360.039 296.107L372.338 296.107L372.338 319.278L382.002 319.278L382.002 294.13L394.302 294.13L394.302 334.543ZM359.16 233.957L359.16 249.441C357.879 249.551 356.717 249.844 355.673 250.32C354.63 250.777 353.733 251.418 352.983 252.241C352.214 253.047 351.628 254.026 351.226 255.179C350.805 256.332 350.594 257.641 350.594 259.105C350.594 261.667 351.216 263.836 352.461 265.612C353.706 267.369 355.49 268.705 357.815 269.62C360.139 270.517 362.93 270.965 366.188 270.965C369.629 270.965 372.512 270.508 374.836 269.593C377.143 268.659 378.881 267.314 380.053 265.557C381.206 263.8 381.782 261.686 381.782 259.215C381.782 257.805 381.609 256.543 381.261 255.426C380.895 254.31 380.373 253.34 379.696 252.516C379.019 251.692 378.204 251.024 377.252 250.512C376.282 249.981 375.193 249.624 373.985 249.441L374.095 233.957C376.475 234.14 378.9 234.808 381.371 235.961C383.823 237.114 386.093 238.752 388.179 240.875C390.248 242.98 391.913 245.588 393.176 248.7C394.439 251.811 395.07 255.426 395.07 259.544C395.07 264.706 393.963 269.336 391.748 273.436C389.534 277.518 386.276 280.748 381.975 283.128C377.673 285.489 372.411 286.669 366.188 286.669C359.929 286.669 354.657 285.461 350.375 283.045C346.073 280.629 342.825 277.371 340.628 273.272C338.413 269.172 337.306 264.596 337.306 259.544C337.306 255.993 337.791 252.726 338.761 249.743C339.731 246.76 341.15 244.142 343.017 241.891C344.865 239.64 347.144 237.828 349.853 236.455C352.562 235.082 355.664 234.25 359.16 233.957ZM338.075 178.382L394.302 178.382L394.302 191.121L364.761 211.437L364.761 211.767L394.302 211.767L394.302 227.031L338.075 227.031L338.075 214.073L367.506 194.086L367.506 193.647L338.075 193.647L338.075 178.382ZM360.478 143.268L371.899 143.268L371.899 169.624L360.478 169.624L360.478 143.268ZM394.302 135.265L383.32 135.265L365.969 114.289C364.816 112.898 363.736 111.709 362.729 110.72C361.704 109.714 360.652 108.945 359.572 108.414C358.492 107.865 357.293 107.59 355.975 107.59C354.529 107.59 353.294 107.902 352.269 108.524C351.244 109.128 350.457 109.97 349.908 111.05C349.34 112.13 349.057 113.374 349.057 114.783C349.057 116.193 349.34 117.437 349.908 118.517C350.475 119.579 351.308 120.402 352.406 120.988C353.504 121.574 354.84 121.867 356.415 121.867L356.415 136.363C352.461 136.363 349.057 135.475 346.201 133.7C343.346 131.924 341.15 129.417 339.612 126.177C338.075 122.937 337.306 119.14 337.306 114.783C337.306 110.281 338.029 106.382 339.475 103.088C340.903 99.775 342.916 97.2217 345.515 95.428C348.114 93.616 351.162 92.71 354.657 92.71C356.817 92.71 358.968 93.1584 361.109 94.0553C363.232 94.9521 365.584 96.5628 368.165 98.8873C370.746 101.212 373.821 104.515 377.39 108.798L381.782 114.07L382.112 114.07L382.112 92.106L394.302 92.106L394.302 135.265Z" fill="white"/>
</svg>
